<?xml version="1.0" encoding="utf-8"?>
<!-- Generator: Adobe Illustrator 24.1.1, SVG Export Plug-In . SVG Version: 6.00 Build 0)  -->
<svg version="1.0" id="Layer_1" xmlns="http://www.w3.org/2000/svg" xmlns:xlink="http://www.w3.org/1999/xlink" x="0px" y="0px"  width="31px" height="30px"
	 viewBox="0 0 522 516" enable-background="new 0 0 522 516" xml:space="preserve">
<g>
	<g id="Page-1">
		<g id="_x31_29---Trash-File">
			<g id="Icons" transform="translate(1 1)">
				<path id="Shape" fill="#005EB8" stroke="#000000" stroke-width="1.5" stroke-miterlimit="10" d="M387,45.7v392.5
					c0,18.9-15.3,34.1-34.1,34.1L45.7,455.3c-18.9,0-34.1-15.3-34.1-34.1V122.5h76.8c18.9,0,34.1-15.3,34.1-34.1V11.5h230.4
					C371.7,11.5,387,26.8,387,45.7z"/>
				<path id="Shape_1_" fill="#FE5000" stroke="#000000" stroke-width="1.5" stroke-miterlimit="10" d="M352.9,11.5h-25.6
					c18.9,0,34.1,15.3,34.1,34.1v392.5c0,18.9-15.3,34.1-34.1,34.1h25.6c18.9,0,34.1-15.3,34.1-34.1V45.7
					C387,26.8,371.7,11.5,352.9,11.5z"/>
				<path id="Shape_2_" fill="#005EB8" stroke="#000000" stroke-width="1.5" stroke-miterlimit="10" d="M421.1,79.8v375.5
					c0,18.9-15.3,34.1-34.1,34.1H79.8c-18.9,0-34.1-15.3-34.1-34.1h307.2c18.9,0,34.1-15.3,34.1-34.1V45.7
					C405.9,45.7,421.1,60.9,421.1,79.8z"/>
				<path id="Shape_3_" fill="#B1B3B3" stroke="#000000" stroke-width="1.5" stroke-miterlimit="10" d="M440,506.5H265.7
					c-8.7,0-16-6.5-17-15.2l-32.4-275h273.1l-32.4,275C456,499.9,448.7,506.5,440,506.5z"/>
				<path id="Shape_4_" fill="#FE5000" stroke="#000000" stroke-width="1.5" stroke-miterlimit="10" d="M463.8,216.3l-32.4,275
					c-1,8.6-8.3,15.2-17,15.2H440c8.7,0,16-6.5,17-15.2l32.4-275L463.8,216.3z"/>
				<path id="Rectangle-path" fill="#B1B3B3" stroke="#000000" stroke-width="1.5" stroke-miterlimit="10" d="M216.3,173.7h273.1
					c9.4,0,17.1,7.6,17.1,17.1v8.5c0,9.4-7.6,17.1-17.1,17.1H216.3c-9.4,0-17.1-7.6-17.1-17.1v-8.5
					C199.3,181.3,206.9,173.7,216.3,173.7z"/>
				<path id="Shape_5_" fill="#FE5000" stroke="#000000" stroke-width="1.5" stroke-miterlimit="10" d="M489.4,173.7h-25.6
					c9.4,0,17.1,7.6,17.1,17.1v8.5c0,9.4-7.6,17.1-17.1,17.1h25.6c9.4,0,17.1-7.6,17.1-17.1v-8.5
					C506.5,181.3,498.8,173.7,489.4,173.7z"/>
				<path id="Shape_6_" fill="#B1B3B3" stroke="#000000" stroke-width="1.5" stroke-miterlimit="10" d="M284.6,131h136.5
					c9.4,0,17.1,7.6,17.1,17.1v25.6H267.5v-25.6C267.5,138.6,275.2,131,284.6,131z"/>
				<path id="Shape_7_" fill="#FE5000" stroke="#000000" stroke-width="1.5" stroke-miterlimit="10" d="M421.1,131h-25.6
					c9.4,0,17.1,7.6,17.1,17.1v25.6h25.6v-25.6C438.2,138.6,430.6,131,421.1,131z"/>
				<path id="Shape_8_" fill="#00B5E2" stroke="#000000" stroke-width="1.5" stroke-miterlimit="10" d="M122.5,11.5v76.8
					c0,18.9-15.3,34.1-34.1,34.1H11.5L122.5,11.5z"/>
				<g>
					<path id="Shape_9_" fill="#F5F5F5" stroke="#000000" stroke-width="1.5" stroke-miterlimit="10" d="M301.7,54.2h-51.2
						c-4.7,0-8.5-3.8-8.5-8.5s3.8-8.5,8.5-8.5h51.2c4.7,0,8.5,3.8,8.5,8.5S306.4,54.2,301.7,54.2z"/>
					<path id="Shape_10_" fill="#F5F5F5" stroke="#000000" stroke-width="1.5" stroke-miterlimit="10" d="M352.9,54.2h-17.1
						c-4.7,0-8.5-3.8-8.5-8.5s3.8-8.5,8.5-8.5h17.1c4.7,0,8.5,3.8,8.5,8.5S357.6,54.2,352.9,54.2z"/>
				</g>
			</g>
			<g id="Layer_2_1_">
				<path id="Shape_11_" fill="#005EB8" stroke="#000000" stroke-width="1.5" stroke-miterlimit="10" d="M490.4,166.1h-42.7v-17.1
					c0-10.8-6.9-20.4-17.1-24V80.8c0-20.5-14.7-38.2-34.9-41.9C392,18.7,374.4,4,353.9,4H123.5c-2.3,0-4.4,0.9-6,2.5L6.5,117.4
					c-1.6,1.6-2.5,3.8-2.5,6v298.7c0,20.5,14.7,38.2,34.9,41.9c3.7,20.2,21.3,34.9,41.9,34.9h161.9c3.6,10.2,13.2,17.1,24.1,17.1
					H441c13,0,24-9.8,25.4-22.7l31.7-268.7c10.6-3.3,17.8-13.2,17.9-24.3v-8.5C516,177.6,504.5,166.1,490.4,166.1L490.4,166.1z
					 M422.1,140.5c4.7,0,8.5,3.8,8.5,8.5v17.1H277.1v-17.1c0-4.7,3.8-8.5,8.5-8.5H422.1z M413.6,80.8v42.7h-17.1V56.8
					C406.7,60.4,413.6,70,413.6,80.8z M114.9,33.1v56.2c0,14.1-11.5,25.6-25.6,25.6H33.1L114.9,33.1z M21.1,422.1V132h68.3
					c23.6,0,42.6-19.1,42.7-42.7V21.1h221.9c14.1,0,25.6,11.5,25.6,25.6v76.8h-93.9c-14.1,0-25.6,11.5-25.6,25.6v17.1h-42.7
					c-14.1,0-25.6,11.5-25.6,25.6v8.5c0,11.1,7.3,20.9,17.9,24.3l26.3,223.2H46.7C32.5,447.7,21.1,436.3,21.1,422.1z M56.8,464.8
					h181.2l2,17.1H80.8C70,481.8,60.4,475,56.8,464.8L56.8,464.8z M449.4,491.3c-0.5,4.3-4.1,7.6-8.5,7.6H266.7
					c-4.4,0-8-3.3-8.5-7.7l-31.3-265.4h253.9L449.4,491.3z M498.9,200.3c0,4.7-3.8,8.5-8.5,8.5H217.3c-4.7,0-8.5-3.8-8.5-8.5v-8.5
					c0-4.7,3.8-8.5,8.5-8.5h273.1c4.7,0,8.5,3.8,8.5,8.5V200.3z"/>
				<path id="Shape_12_" fill="#005EB8" stroke="#000000" stroke-width="1.5" stroke-miterlimit="10" d="M353.9,481.9
					c4.7,0,8.5-3.8,8.5-8.5V251.5c0-4.7-3.8-8.5-8.5-8.5c-4.7,0-8.5,3.8-8.5,8.5v221.9C345.3,478,349.2,481.9,353.9,481.9z"/>
				<path id="Shape_13_" fill="#005EB8" stroke="#000000" stroke-width="1.5" stroke-miterlimit="10" d="M302.7,481.9
					c0.3,0,0.7,0,1-0.1c4.7-0.5,8-4.8,7.5-9.4l-25.6-221.9c-0.7-4.6-4.8-7.8-9.4-7.2c-4.6,0.5-7.9,4.6-7.5,9.2l25.6,221.9
					C294.7,478.6,298.3,481.9,302.7,481.9L302.7,481.9z"/>
				<path id="Shape_14_" fill="#005EB8" stroke="#000000" stroke-width="1.5" stroke-miterlimit="10" d="M404.1,481.8
					c0.3,0,0.6,0.1,1,0.1c4.3,0,8-3.3,8.5-7.6l25.6-221.9c0.5-3.1-0.8-6.2-3.3-8s-5.8-2.3-8.6-1c-2.8,1.3-4.8,4-5,7.1l-25.6,221.9
					C396,477,399.4,481.3,404.1,481.8z"/>
			</g>
		</g>
	</g>
</g>
</svg>
